<svg xmlns="http://www.w3.org/2000/svg" height="48" width="48" viewBox="0 0 48 48"><title>love movie</title><g class="nc-icon-wrapper"><path d="M1,3V45a2,2,0,0,0,2,2H45a2,2,0,0,0,2-2V3a2,2,0,0,0-2-2H3A2,2,0,0,0,1,3Z" fill="#444"></path><path d="M43,35H5a1,1,0,0,1-1-1V14a1,1,0,0,1,1-1H43a1,1,0,0,1,1,1V34A1,1,0,0,1,43,35Z" fill="#696969"></path><path d="M31.645,24.4A4.986,4.986,0,1,0,24,18.027a4.987,4.987,0,1,0-7.642,6.38L24,32Z" fill="#ed7064"></path><path d="M8,10H5A1,1,0,0,1,4,9V5A1,1,0,0,1,5,4H8A1,1,0,0,1,9,5V9A1,1,0,0,1,8,10Z" fill="#fff"></path><path d="M15,10H12a1,1,0,0,1-1-1V5a1,1,0,0,1,1-1h3a1,1,0,0,1,1,1V9A1,1,0,0,1,15,10Z" fill="#fff"></path><path d="M22,10H19a1,1,0,0,1-1-1V5a1,1,0,0,1,1-1h3a1,1,0,0,1,1,1V9A1,1,0,0,1,22,10Z" fill="#fff"></path><path d="M29,10H26a1,1,0,0,1-1-1V5a1,1,0,0,1,1-1h3a1,1,0,0,1,1,1V9A1,1,0,0,1,29,10Z" fill="#fff"></path><path d="M36,10H33a1,1,0,0,1-1-1V5a1,1,0,0,1,1-1h3a1,1,0,0,1,1,1V9A1,1,0,0,1,36,10Z" fill="#fff"></path><path d="M43,10H40a1,1,0,0,1-1-1V5a1,1,0,0,1,1-1h3a1,1,0,0,1,1,1V9A1,1,0,0,1,43,10Z" fill="#fff"></path><path d="M8,44H5a1,1,0,0,1-1-1V39a1,1,0,0,1,1-1H8a1,1,0,0,1,1,1v4A1,1,0,0,1,8,44Z" fill="#fff"></path><path d="M15,44H12a1,1,0,0,1-1-1V39a1,1,0,0,1,1-1h3a1,1,0,0,1,1,1v4A1,1,0,0,1,15,44Z" fill="#fff"></path><path d="M22,44H19a1,1,0,0,1-1-1V39a1,1,0,0,1,1-1h3a1,1,0,0,1,1,1v4A1,1,0,0,1,22,44Z" fill="#fff"></path><path d="M29,44H26a1,1,0,0,1-1-1V39a1,1,0,0,1,1-1h3a1,1,0,0,1,1,1v4A1,1,0,0,1,29,44Z" fill="#fff"></path><path d="M36,44H33a1,1,0,0,1-1-1V39a1,1,0,0,1,1-1h3a1,1,0,0,1,1,1v4A1,1,0,0,1,36,44Z" fill="#fff"></path><path d="M43,44H40a1,1,0,0,1-1-1V39a1,1,0,0,1,1-1h3a1,1,0,0,1,1,1v4A1,1,0,0,1,43,44Z" fill="#fff"></path></g></svg>