<svg xmlns="http://www.w3.org/2000/svg" height="48" width="48" viewBox="0 0 48 48"><title>movie 2</title><g class="nc-icon-wrapper"><path fill="#444444" d="M45,1H3C1.89543,1,1,1.89543,1,3v41c0,1.10457,0.89543,2,2,2h42c1.10457,0,2-0.89543,2-2V3 C47,1.89543,46.10457,1,45,1z"></path> <path fill="#BADEFC" d="M36,22H12c-0.55229,0-1-0.44772-1-1V5c0-0.55228,0.44771-1,1-1h24c0.55228,0,1,0.44772,1,1v16 C37,21.55228,36.55228,22,36,22z"></path> <path fill="#BADEFC" d="M36,43H12c-0.55229,0-1-0.44772-1-1V26c0-0.55228,0.44771-1,1-1h24c0.55228,0,1,0.44772,1,1v16 C37,42.55228,36.55228,43,36,43z"></path> <path fill="#FFFFFF" d="M7.5,7h-3C4.22386,7,4,6.77614,4,6.5v-2C4,4.22386,4.22386,4,4.5,4h3C7.77614,4,8,4.22386,8,4.5v2 C8,6.77614,7.77614,7,7.5,7z"></path> <path fill="#FFFFFF" d="M7.5,14h-3C4.22386,14,4,13.77614,4,13.5v-2C4,11.22386,4.22386,11,4.5,11h3C7.77614,11,8,11.22386,8,11.5v2 C8,13.77614,7.77614,14,7.5,14z"></path> <path fill="#FFFFFF" d="M7.5,21h-3C4.22386,21,4,20.77614,4,20.5v-2C4,18.22386,4.22386,18,4.5,18h3C7.77614,18,8,18.22386,8,18.5v2 C8,20.77614,7.77614,21,7.5,21z"></path> <path fill="#FFFFFF" d="M7.5,28h-3C4.22386,28,4,27.77614,4,27.5v-2C4,25.22386,4.22386,25,4.5,25h3C7.77614,25,8,25.22386,8,25.5v2 C8,27.77614,7.77614,28,7.5,28z"></path> <path fill="#FFFFFF" d="M7.5,35h-3C4.22386,35,4,34.77614,4,34.5v-2C4,32.22386,4.22386,32,4.5,32h3C7.77614,32,8,32.22386,8,32.5v2 C8,34.77614,7.77614,35,7.5,35z"></path> <path fill="#FFFFFF" d="M7.5,42h-3C4.22386,42,4,41.77614,4,41.5v-2C4,39.22386,4.22386,39,4.5,39h3C7.77614,39,8,39.22386,8,39.5v2 C8,41.77614,7.77614,42,7.5,42z"></path> <path fill="#FFFFFF" d="M43.5,7h-3C40.22386,7,40,6.77614,40,6.5v-2C40,4.22386,40.22386,4,40.5,4h3C43.77614,4,44,4.22386,44,4.5v2 C44,6.77614,43.77614,7,43.5,7z"></path> <path fill="#FFFFFF" d="M43.5,14h-3c-0.27614,0-0.5-0.22386-0.5-0.5v-2c0-0.27614,0.22386-0.5,0.5-0.5h3 c0.27614,0,0.5,0.22386,0.5,0.5v2C44,13.77614,43.77614,14,43.5,14z"></path> <path fill="#FFFFFF" d="M43.5,21h-3c-0.27614,0-0.5-0.22386-0.5-0.5v-2c0-0.27614,0.22386-0.5,0.5-0.5h3 c0.27614,0,0.5,0.22386,0.5,0.5v2C44,20.77614,43.77614,21,43.5,21z"></path> <path fill="#FFFFFF" d="M43.5,28h-3c-0.27614,0-0.5-0.22386-0.5-0.5v-2c0-0.27614,0.22386-0.5,0.5-0.5h3 c0.27614,0,0.5,0.22386,0.5,0.5v2C44,27.77614,43.77614,28,43.5,28z"></path> <path fill="#FFFFFF" d="M43.5,35h-3c-0.27614,0-0.5-0.22386-0.5-0.5v-2c0-0.27614,0.22386-0.5,0.5-0.5h3 c0.27614,0,0.5,0.22386,0.5,0.5v2C44,34.77614,43.77614,35,43.5,35z"></path> <path fill="#FFFFFF" d="M43.5,42h-3c-0.27614,0-0.5-0.22386-0.5-0.5v-2c0-0.27614,0.22386-0.5,0.5-0.5h3 c0.27614,0,0.5,0.22386,0.5,0.5v2C44,41.77614,43.77614,42,43.5,42z"></path></g></svg>