<svg xmlns="http://www.w3.org/2000/svg" height="48" width="48" viewBox="0 0 48 48"><title>logo snapchat</title><g class="nc-icon-wrapper"><path d="M9.011,2H38.989A7.011,7.011,0,0,1,46,9.011V38.989A7.011,7.011,0,0,1,38.989,46H9.012A7.012,7.012,0,0,1,2,38.988V9.011A7.011,7.011,0,0,1,9.011,2Z" fill="#fffc00"></path><path d="M24.162,39.127c-.084,0-.165,0-.247-.006h0c-.052,0-.106.006-.161.006a7.051,7.051,0,0,1-4.32-1.7,6.318,6.318,0,0,0-2.5-1.276,8.125,8.125,0,0,0-1.313-.11,8.957,8.957,0,0,0-1.819.2,3.969,3.969,0,0,1-.678.1A.427.427,0,0,1,12.651,36c-.075-.257-.13-.506-.182-.747-.136-.62-.232-1-.492-1.041-3.028-.468-3.895-1.106-4.088-1.558a.579.579,0,0,1-.047-.194.341.341,0,0,1,.285-.356c4.656-.766,6.744-5.525,6.831-5.727l.007-.016a1.772,1.772,0,0,0,.166-1.49c-.319-.753-1.361-1.084-2.051-1.3-.169-.053-.329-.1-.455-.153-1.376-.545-1.491-1.1-1.437-1.388a1.3,1.3,0,0,1,1.265-.823.9.9,0,0,1,.377.075,4.01,4.01,0,0,0,1.658.437,1.369,1.369,0,0,0,.992-.316c-.017-.315-.038-.644-.06-.984-.138-2.2-.31-4.936.386-6.5a8.421,8.421,0,0,1,7.82-5.043l.573-.006h.077a8.438,8.438,0,0,1,7.834,5.047c.7,1.562.524,4.3.385,6.5l0,.1c-.02.306-.038.6-.054.889a1.33,1.33,0,0,0,.9.314h0a4.158,4.158,0,0,0,1.563-.435,1.174,1.174,0,0,1,.485-.095,1.48,1.48,0,0,1,.559.106l.01,0a1.028,1.028,0,0,1,.781.836c.006.323-.24.807-1.448,1.285-.125.049-.285.1-.455.153-.69.219-1.732.55-2.051,1.3a1.77,1.77,0,0,0,.166,1.489l.008.017c.086.2,2.172,4.959,6.83,5.727a.34.34,0,0,1,.285.356.568.568,0,0,1-.047.194c-.192.45-1.059,1.087-4.088,1.555-.248.038-.344.36-.491,1.037-.054.246-.109.488-.183.742a.4.4,0,0,1-.434.324h-.037a3.774,3.774,0,0,1-.678-.086,9.077,9.077,0,0,0-1.82-.192,8.147,8.147,0,0,0-1.314.11,6.3,6.3,0,0,0-2.5,1.274A7.054,7.054,0,0,1,24.162,39.127Z" fill="#fff"></path><path d="M24.276,8.531H24.2l-.57.005a8.758,8.758,0,0,0-8.131,5.246c-.73,1.638-.555,4.419-.415,6.654.017.263.035.537.05.8a1.306,1.306,0,0,1-.641.14,3.672,3.672,0,0,1-1.513-.405,1.23,1.23,0,0,0-.522-.107,1.633,1.633,0,0,0-1.6,1.1c-.09.474.122,1.166,1.647,1.768.137.054.3.106.477.162.63.2,1.582.5,1.84,1.11a1.46,1.46,0,0,1-.158,1.206l-.015.033c-.084.2-2.1,4.788-6.572,5.525a.682.682,0,0,0-.571.711.93.93,0,0,0,.073.307c.336.785,1.752,1.36,4.331,1.76a3.223,3.223,0,0,1,.23.779c.054.248.11.5.189.772a.763.763,0,0,0,.8.581,4.168,4.168,0,0,0,.743-.1,8.69,8.69,0,0,1,1.754-.2,7.675,7.675,0,0,1,1.258.106A5.97,5.97,0,0,1,19.236,37.7a7.427,7.427,0,0,0,4.518,1.768c.056,0,.111,0,.167-.006s.15.006.241.006A7.421,7.421,0,0,0,28.679,37.7a5.974,5.974,0,0,1,2.359-1.217,7.675,7.675,0,0,1,1.258-.106,8.729,8.729,0,0,1,1.754.186,4.112,4.112,0,0,0,.744.092h.037a.741.741,0,0,0,.761-.57c.078-.264.134-.512.189-.764a3.15,3.15,0,0,1,.23-.776c2.579-.4,3.995-.975,4.33-1.756a.913.913,0,0,0,.074-.309.683.683,0,0,0-.571-.711c-4.475-.737-6.488-5.33-6.572-5.524l-.015-.033a1.46,1.46,0,0,1-.158-1.206c.258-.608,1.21-.91,1.839-1.11.177-.056.342-.109.478-.162,1.116-.441,1.676-.982,1.664-1.609a1.334,1.334,0,0,0-1-1.148h0a1.831,1.831,0,0,0-.687-.132,1.531,1.531,0,0,0-.63.128,3.82,3.82,0,0,1-1.418.4,1.25,1.25,0,0,1-.553-.137c.013-.227.027-.46.042-.7l.006-.095c.141-2.237.316-5.02-.414-6.659a8.773,8.773,0,0,0-8.146-5.249Z" fill="none" stroke="#030303" stroke-linecap="round" stroke-linejoin="round" stroke-width="1.5"></path></g></svg>