<svg xmlns="http://www.w3.org/2000/svg" height="48" width="48" viewBox="0 0 48 48"><title>tiktok</title><g class="nc-icon-wrapper"><rect x="3" y="3" width="42" height="42" rx="2"></rect><path d="M20.763,19.2v5.586a4.749,4.749,0,0,0-6.109,4.229c0,2.245,1.234,4.941,4.706,4.941a4.633,4.633,0,0,0,4.7-4.758V7.083h5.528c.939,5.848,3.863,7.206,7.779,7.832v5.6s-4.647-.329-7.623-2.575V29.012c0,4.595-3.5,10.6-10.338,10.6S9.067,33.816,9.067,28.96A10.185,10.185,0,0,1,20.763,19.2Z" fill="#6ac9d0"></path><path d="M22.329,20.5v5.586a4.749,4.749,0,0,0-6.109,4.23c0,2.245,1.234,4.94,4.706,4.94a4.633,4.633,0,0,0,4.7-4.758V8.389h5.528c.94,5.847,3.864,7.205,7.78,7.831v5.6s-4.647-.329-7.623-2.574V30.318c0,4.594-3.5,10.6-10.338,10.6s-10.338-5.8-10.338-10.652A10.185,10.185,0,0,1,22.329,20.5Z" fill="#ee1d52"></path><path d="M37.366,15.907a7.566,7.566,0,0,1-4.094-2.3c-1.575-.94-2.764-2.5-3.423-5.22H25.625V30.5a4.633,4.633,0,0,1-4.7,4.758,4.357,4.357,0,0,1-3.746-1.753,4.8,4.8,0,0,1-2.526-4.493,4.749,4.749,0,0,1,6.109-4.229v-4.4a10.213,10.213,0,0,0-10.129,9.883,11.265,11.265,0,0,0,3.105,7.7,10.018,10.018,0,0,0,5.666,1.65c6.84,0,10.338-6,10.338-10.6V17.943c2.976,2.246,7.623,2.575,7.623,2.575Z" fill="#fff"></path></g></svg>